# File created by Blade
# Date/Time:  Tue Jan 27 20:02:46 2015
#---------------------------------------------------------
:version 1.10
:name HOM
:units
  mass 1.0
  length 1.000000
  angle deg
:documentation
     Acclaim Skeleton File
:root
   axis xyz
   order TX TY TZ RX RY RZ
   position 0.000000 0.000000 0.000000
   orientation 0 0 0
:bonedata
   begin
      id 1
      name Spine_dum
      direction 0.000000 1.000000 0.000000
      length 6.116652
      axis 0.0 0.0 0.0 xyz
   end
   begin
      id 2
      name LeftUpLeg_dum
      direction 1.000000 0.000000 0.000000
      length 4.711765
      axis 0.0 0.0 0.0 xyz
   end
   begin
      id 3
      name RightUpLeg_dum
      direction -1.000000 0.000000 0.000000
      length 4.711765
      axis 0.0 0.0 0.0 xyz
   end
   begin
      id 4
      name Spine
      direction 0.000000 1.000000 0.000000
      length 0.000000
      axis 0.0 0.0 0.0 xyz
      dof rx ry rz
   end
   begin
      id 5
      name Spine_dum1
      direction 0.000000 1.000000 0.000000
      length 15.225563
      axis 0.0 0.0 0.0 xyz
   end
   begin
      id 6
      name Spine_dum2
      direction 0.000000 1.000000 0.000000
      length 8.977654
      axis 0.0 0.0 0.0 xyz
   end
   begin
      id 7
      name Spine_dum3
      direction 0.000000 1.000000 0.000000
      length 8.977654
      axis 0.0 0.0 0.0 xyz
   end
   begin
      id 8
      name Head
      direction 0.000000 1.000000 0.000000
      length 4.527550
      axis 0.0 0.0 0.0 xyz
      dof rx ry rz
   end
   begin
      id 9
      name LeftShoulder
      direction 1.000000 0.000000 0.000000
      length 7.110130
      axis 0.0 0.0 -90.0 xyz
      dof rx ry rz
   end
   begin
      id 10
      name LeftArm
      direction 1.000000 0.000000 0.000000
      length 10.398341
      axis 0.0 0.0 -90.0 xyz
      dof rx ry rz
   end
   begin
      id 11
      name LeftForeArm
      direction 1.000000 0.000000 0.000000
      length 8.888997
      axis 0.0 0.0 -90.0 xyz
      dof ry rz rx
   end
   begin
      id 12
      name LeftHand
      direction 0.000000 0.000000 0.000000
      length 0.000000
      axis 0.0 0.0 -90.0 xyz
      dof rx ry rz
   end
   begin
      id 13
      name LeftHand_dum1
      direction 0.000000 0.000000 0.000000
      length 0.000000
      axis 0.0 0.0 -90.0 xyz
   end
   begin
      id 14
      name LeftHand_dum2
      direction 1.000000 0.000000 0.000000
      length 3.937000
      axis 0.0 0.0 -90.0 xyz
   end
   begin
      id 15
      name LeftHandThumb1
      direction 0.000000 0.000000 1.000000
      length 3.937000
      axis 0.0 0.0 -90.0 xyz
      dof rx rz ry
   end
   begin
      id 16
      name RightShoulder
      direction -1.000000 0.000000 0.000000
      length 7.110130
      axis 0.0 0.0 90.0 xyz
      dof rx ry rz
   end
   begin
      id 17
      name RightArm
      direction -1.000000 0.000000 0.000000
      length 10.398341
      axis 0.0 0.0 90.0 xyz
      dof rx ry rz
   end
   begin
      id 18
      name RightForeArm
      direction -1.000000 0.000000 0.000000
      length 8.888997
      axis 0.0 0.0 90.0 xyz
      dof ry rz rx
   end
   begin
      id 19
      name RightHand
      direction 0.000000 0.000000 0.000000
      length 0.000000
      axis 0.0 0.0 90.0 xyz
      dof rx ry rz
   end
   begin
      id 20
      name RightHand_dum1
      direction 0.000000 0.000000 0.000000
      length 0.000000
      axis 0.0 0.0 90.0 xyz
   end
   begin
      id 21
      name RightHand_dum2
      direction -1.000000 0.000000 0.000000
      length 3.937000
      axis 0.0 0.0 90.0 xyz
   end
   begin
      id 22
      name RightHandThumb1
      direction 0.000000 0.000000 1.000000
      length 3.937000
      axis 0.0 0.0 90.0 xyz
      dof rx rz ry
   end
   begin
      id 23
      name LeftUpLeg
      direction 0.000000 -1.000000 0.000000
      length 15.510451
      axis 0.0 0.0 0.0 xyz
      dof rx ry rz
   end
   begin
      id 24
      name LeftLeg
      direction 0.000000 -1.000000 0.000000
      length 14.858061
      axis 0.0 0.0 0.0 xyz
      dof rx ry rz
   end
   begin
      id 25
      name LeftFoot
      direction 0.000000 -0.258819 0.965926
      length 5.128852
      axis 15.0 0.0 0.0 xyz
      dof rx ry rz
   end
   begin
      id 26
      name LeftToeBase
      direction 0.000000 0.000000 1.000000
      length 2.952750
      axis 0.0 0.0 0.0 xyz
      dof rx ry rz
   end
   begin
      id 27
      name RightUpLeg
      direction 0.000000 -1.000000 0.000000
      length 15.510451
      axis 0.0 0.0 0.0 xyz
      dof rx ry rz
   end
   begin
      id 28
      name RightLeg
      direction 0.000000 -1.000000 0.000000
      length 14.858061
      axis 0.0 0.0 0.0 xyz
      dof rx ry rz
   end
   begin
      id 29
      name RightFoot
      direction 0.000000 -0.258819 0.965926
      length 5.128852
      axis 15.0 0.0 0.0 xyz
      dof rx ry rz
   end
   begin
      id 30
      name RightToeBase
      direction 0.000000 0.000000 1.000000
      length 2.952750
      axis 0.0 0.0 0.0 xyz
      dof rx ry rz
   end
:hierarchy
   begin
      root Spine_dum LeftUpLeg_dum RightUpLeg_dum
      Spine_dum Spine
      LeftUpLeg_dum LeftUpLeg
      RightUpLeg_dum RightUpLeg
      Spine Spine_dum1 Spine_dum2 Spine_dum3
      Spine_dum1 Head
      Spine_dum2 LeftShoulder
      Spine_dum3 RightShoulder
      LeftShoulder LeftArm
      LeftArm LeftForeArm
      LeftForeArm LeftHand
      LeftHand LeftHand_dum1 LeftHand_dum2
      LeftHand_dum1 LeftHandThumb1
      RightShoulder RightArm
      RightArm RightForeArm
      RightForeArm RightHand
      RightHand RightHand_dum1 RightHand_dum2
      RightHand_dum1 RightHandThumb1
      LeftUpLeg LeftLeg
      LeftLeg LeftFoot
      LeftFoot LeftToeBase
      RightUpLeg RightLeg
      RightLeg RightFoot
      RightFoot RightToeBase
   end

# File created by Blade
# Date/Time:  Tue Jan 27 20:02:37 2015
# Frame Rate: 120.000 fps
#------------------------------------------------------
:FULLY-SPECIFIED
:DEGREES
132
root 4.177401 32.263546 4.030956 -1.445678 -2.588158 0.509208
Spine 5.614187 6.399231 -2.770521
Head -17.569161 -0.346214 6.590880
LeftShoulder -18.431690 4.125986 32.118929
LeftArm -0.708732 9.890795 -73.087330
LeftForeArm -12.240512 -0.000000 98.730184
LeftHand 9.506839 -0.000000 -14.912475
LeftHandThumb1 -26.253704 0.000000 33.147579
RightShoulder -23.784254 -23.330170 -27.536758
RightArm 7.039010 1.560413 75.822309
RightForeArm -20.653351 -0.000000 61.906598
RightHand 16.639533 -0.000000 7.568067
RightHandThumb1 -24.326973 -0.000000 -32.862282
LeftUpLeg 7.111330 -2.145325 -2.530817
LeftLeg 1.792698 -0.000000 -0.000000
LeftFoot -19.183099 17.645744 -22.468795
LeftToeBase 16.517025 -0.000000 -0.000000
RightUpLeg 5.472423 -4.301096 4.796304
RightLeg 0.543332 -0.000000 -0.000000
RightFoot -12.525246 -15.612044 14.896534
RightToeBase 10.625628 -0.000000 -0.000000
133
root 4.184047 32.262775 4.026159 -1.478104 -2.586412 0.506382
Spine 5.643793 6.396874 -2.796394
Head -17.573665 -0.398658 6.501784
LeftShoulder -18.462791 4.104575 31.888553
LeftArm -0.541900 11.050911 -74.565302
LeftForeArm -12.529786 -0.000000 100.819851
LeftHand 9.574166 0.000000 -15.206669
LeftHandThumb1 -26.253704 0.000000 33.147579
RightShoulder -23.775019 -23.238132 -27.410163
RightArm 6.822497 0.529644 77.023310
RightForeArm -20.654693 -0.000000 62.738685
RightHand 16.621765 0.000000 7.617743
RightHandThumb1 -24.326973 -0.000000 -32.862282
LeftUpLeg 7.126109 -2.142550 -2.537268
LeftLeg 1.808343 -0.000000 -0.000000
LeftFoot -19.213270 17.626266 -22.485796
LeftToeBase 16.642027 -0.000000 -0.000000
RightUpLeg 5.488748 -4.302219 4.782080
RightLeg 0.566470 -0.000000 -0.000000
RightFoot -12.593522 -15.561977 15.010778
RightToeBase 10.834224 -0.000000 -0.000000
134
root 4.191140 32.262067 4.021058 -1.487721 -2.581858 0.505095
Spine 5.645325 6.367885 -2.824484
Head -17.577416 -0.363373 6.426574
LeftShoulder -18.515435 4.116963 31.598731
LeftArm -0.283829 12.157442 -75.974356
LeftForeArm -12.533686 -0.000000 102.818332
LeftHand 9.661479 -0.000000 -15.461430
LeftHandThumb1 -26.253704 0.000000 33.147579
RightShoulder -23.766402 -23.179697 -27.279601
RightArm 6.655049 -0.444370 78.264175
RightForeArm -20.628598 -0.000000 63.484273
RightHand 16.704197 -0.000000 7.739039
RightHandThumb1 -24.326973 -0.000000 -32.862282
LeftUpLeg 7.113605 -2.130423 -2.546352
LeftLeg 1.827971 -0.000000 -0.000000
LeftFoot -19.203034 17.582334 -22.460970
LeftToeBase 16.718419 -0.000000 -0.000000
RightUpLeg 5.485018 -4.323325 4.767037
RightLeg 0.573578 -0.000000 -0.000000
RightFoot -12.576333 -15.546751 15.001296
RightToeBase 10.692804 -0.000000 -0.000000
135
root 4.197806 32.261550 4.017143 -1.520301 -2.588999 0.525589
Spine 5.674535 6.353732 -2.869879
Head -17.599833 -0.369339 6.342128
LeftShoulder -18.524589 4.035110 31.339423
LeftArm -0.085270 13.214384 -77.402904
LeftForeArm -12.500828 0.000000 104.693965
LeftHand 9.666616 -0.000000 -15.589335
LeftHandThumb1 -26.253704 0.000000 33.147579
RightShoulder -23.747914 -23.125394 -27.140939
RightArm 6.502622 -1.287287 79.586769
RightForeArm -20.681617 0.000000 64.141449
RightHand 16.756291 -0.000000 7.803349
RightHandThumb1 -24.326973 -0.000000 -32.862282
LeftUpLeg 7.128274 -2.141515 -2.579125
LeftLeg 1.845600 -0.000000 -0.000000
LeftFoot -19.185375 17.592088 -22.452824
LeftToeBase 16.662863 -0.000000 -0.000000
RightUpLeg 5.511312 -4.278446 4.733395
RightLeg 0.573065 -0.000000 -0.000000
RightFoot -12.610984 -15.561989 15.046402
RightToeBase 10.731339 -0.000000 -0.000000
136
root 4.205173 32.260747 4.011897 -1.522666 -2.554133 0.530889
Spine 5.666207 6.278147 -2.904638
Head -17.607119 -0.332395 6.234151
LeftShoulder -18.550150 3.880056 31.126454
LeftArm 0.078834 14.259514 -78.834696
LeftForeArm -12.449257 -0.000000 106.397625
LeftHand 9.887956 -0.000000 -16.004518
LeftHandThumb1 -26.253704 0.000000 33.147579
RightShoulder -23.693307 -23.217009 -26.913952
RightArm 6.489310 -2.026021 80.874870
RightForeArm -20.732960 0.000000 64.744620
RightHand 16.798929 0.000000 7.898621
RightHandThumb1 -24.326973 -0.000000 -32.862282
LeftUpLeg 7.104607 -2.189110 -2.598911
LeftLeg 1.873400 -0.000000 -0.000000
LeftFoot -19.213113 17.620380 -22.466767
LeftToeBase 16.575005 -0.000000 -0.000000
RightUpLeg 5.504928 -4.323944 4.711404
RightLeg 0.575490 -0.000000 -0.000000
RightFoot -12.616007 -15.538938 15.065019
RightToeBase 10.666956 -0.000000 -0.000000
137
root 4.210370 32.260056 4.008876 -1.563451 -2.522088 0.530435
Spine 5.706395 6.248860 -2.931224
Head -17.629338 -0.321164 6.146904
LeftShoulder -18.552826 3.746026 30.909726
LeftArm 0.346702 15.241390 -80.273488
LeftForeArm -12.493565 0.000000 107.946203
LeftHand 10.096103 -0.000000 -16.439974
LeftHandThumb1 -26.253704 0.000000 33.147579
RightShoulder -23.695005 -23.164733 -26.723096
RightArm 6.366847 -2.790563 82.186265
RightForeArm -20.723570 0.000000 65.199253
RightHand 16.707913 -0.000000 7.474832
RightHandThumb1 -24.326973 -0.000000 -32.862282
LeftUpLeg 7.122150 -2.205998 -2.608209
LeftLeg 1.913347 -0.000000 -0.000000
LeftFoot -19.263372 17.563349 -22.568914
LeftToeBase 16.571378 -0.000000 -0.000000
RightUpLeg 5.538453 -4.361119 4.695361
RightLeg 0.584270 -0.000000 -0.000000
RightFoot -12.633824 -15.511467 15.085578
RightToeBase 10.740974 -0.000000 -0.000000
